<svg width="32" height="32" viewBox="0 0 32 32" fill="none" xmlns="http://www.w3.org/2000/svg">
<g id="3d-cube 1" clip-path="url(#clip0_1_347)">
<g id="Group">
<path id="Vector" d="M31.3522 27.4493L30.6907 24.9802C30.6046 24.6588 30.2741 24.4678 29.9528 24.5542C29.6313 24.6403 29.4405 24.9707 29.5267 25.2921L29.8163 26.373L25.5886 23.9614V13.9382C25.5886 13.7225 25.4733 13.5233 25.2863 13.4158L16.5507 8.39345V3.62075L17.3297 4.39976C17.5651 4.63504 17.9465 4.63504 18.1819 4.39976C18.4172 4.16447 18.4172 3.78295 18.1819 3.54761L16.3743 1.74004C16.1387 1.50355 15.753 1.50831 15.5222 1.74004L13.7146 3.54761C13.4793 3.78289 13.4793 4.16441 13.7146 4.39976C13.9499 4.63498 14.3314 4.63498 14.5667 4.39976L15.3457 3.62075V8.39454L6.66876 13.4167C6.48264 13.5244 6.36804 13.7232 6.36804 13.9382V23.864L2.08079 26.3002L2.3709 25.2173C2.457 24.8959 2.26624 24.5655 1.9448 24.4794C1.62329 24.3931 1.29299 24.584 1.20689 24.9055L0.54532 27.3752C0.461569 27.6879 0.648833 28.0359 0.989439 28.1179L3.44056 28.7747C3.7646 28.8615 4.09309 28.6674 4.17853 28.3486C4.26469 28.0272 4.07393 27.6969 3.75249 27.6107L2.70693 27.3306L6.962 24.9126L15.6805 30.0465C15.8671 30.1564 16.0989 30.1579 16.2872 30.0493L18.4974 28.7752C18.7857 28.609 18.8846 28.2405 18.7184 27.9523C18.5522 27.664 18.1838 27.5651 17.8955 27.7312L15.9895 28.83L8.17066 24.2259L15.9103 19.8278L23.7991 24.3279L22.5922 25.0237C22.3039 25.1898 22.2049 25.5583 22.3711 25.8465C22.5373 26.1349 22.9058 26.2339 23.194 26.0676L25.0118 25.0196L29.1923 27.4044L28.1453 27.6849C27.8239 27.771 27.6331 28.1014 27.7193 28.4228C27.8049 28.7426 28.1342 28.9355 28.4572 28.8488L30.872 28.2019C31.2168 28.141 31.4447 27.7944 31.3522 27.4493ZM24.3835 23.2739L16.5507 18.8058V9.78347L24.3835 14.2868V23.2739ZM7.57308 14.2856L15.3456 9.78697V18.7625L7.57308 23.1792V14.2856Z" fill="#D80027"/>
<path id="Vector_2" d="M20.5274 27.4726C20.8602 27.4726 21.1299 27.2029 21.1299 26.8701C21.1299 26.5373 20.8602 26.2676 20.5274 26.2676C20.1946 26.2676 19.9249 26.5373 19.9249 26.8701C19.9249 27.2029 20.1946 27.4726 20.5274 27.4726Z" fill="#D80027"/>
</g>
</g>
<defs>
<clipPath id="clip0_1_347">
<rect width="30.8475" height="30.8475" fill="white" transform="translate(0.525452 0.423828)"/>
</clipPath>
</defs>
</svg>
