<svg width="40" height="40" viewBox="0 0 40 40" fill="none" xmlns="http://www.w3.org/2000/svg">
<g id="ps4 1" clip-path="url(#clip0_1_296)">
<g id="Group">
<g id="Group_2">
<path id="Vector" d="M8.40561 14.2422H0.220337V16.5661H8.40561C9.04631 16.5661 9.56756 17.0873 9.56756 17.728C9.56756 18.3687 9.04631 18.89 8.40561 18.89H3.70617C1.78408 18.89 0.220337 20.4537 0.220337 22.3758V25.8616H2.54422V22.3758C2.54422 21.7351 3.06547 21.2139 3.70617 21.2139H8.40561C10.3277 21.2139 11.8914 19.6501 11.8914 17.728C11.8914 15.8059 10.3277 14.2422 8.40561 14.2422Z" fill="#D80027"/>
</g>
</g>
<g id="Group_3">
<g id="Group_4">
<path id="Vector_2" d="M20.6318 14.2422C18.7097 14.2422 17.146 15.8059 17.146 17.728V22.3758C17.146 23.0165 16.6247 23.5377 15.984 23.5377H10.7295V25.8616H15.984C17.9061 25.8616 19.4699 24.2979 19.4699 22.3758V17.728C19.4699 17.0873 19.9911 16.5661 20.6318 16.5661H25.8864V14.2422H20.6318Z" fill="#D80027"/>
</g>
</g>
<g id="Group_5">
<g id="Group_6">
<path id="Vector_3" d="M37.5575 21.2137V16.5661C37.5575 15.2847 36.515 14.2422 35.2336 14.2422C34.7934 14.2422 34.3647 14.3661 33.9935 14.6005L26.6346 19.2483C25.9559 19.6769 25.5507 20.4116 25.5507 21.2139C25.5507 22.4952 26.5932 23.5377 27.8746 23.5377H35.2336V25.8616H37.5575V23.5377H39.8814V21.2139L37.5575 21.2137ZM35.2336 21.2136L27.8755 21.2132L35.2336 16.5661V21.2136Z" fill="#D80027"/>
</g>
</g>
</g>
<defs>
<clipPath id="clip0_1_296">
<rect width="39.661" height="39.661" fill="white" transform="translate(0.220337 0.220703)"/>
</clipPath>
</defs>
</svg>
